<svg xmlns="http://www.w3.org/2000/svg" xmlns:xlink="http://www.w3.org/1999/xlink" width="101" height="101" viewBox="0 0 101 101">
  <defs>
    <filter id="Tracciato_1750" x="0" y="0" width="101" height="101" filterUnits="userSpaceOnUse">
      <feOffset input="SourceAlpha"/>
      <feGaussianBlur stdDeviation="5.5" result="blur"/>
      <feFlood flood-opacity="0.529"/>
      <feComposite operator="in" in2="blur"/>
      <feComposite in="SourceGraphic"/>
    </filter>
    <clipPath id="clip-path">
      <rect id="Rettangolo_1120" data-name="Rettangolo 1120" width="27" height="27" transform="translate(0.219 0.256)" fill="#333"/>
    </clipPath>
  </defs>
  <g id="Reset_Icon_Button" data-name="Reset Icon Button" transform="translate(16.5 16.5)">
    <g transform="matrix(1, 0, 0, 1, -16.5, -16.5)" filter="url(#Tracciato_1750)">
      <path id="Tracciato_1750-2" data-name="Tracciato 1750" d="M34,0A34,34,0,1,1,0,34,34,34,0,0,1,34,0Z" transform="translate(16.5 16.5)" fill="#fff"/>
    </g>
    <g id="Raggruppa_3427" data-name="Raggruppa 3427" transform="translate(21.037 26)">
      <g id="Raggruppa_3360" data-name="Raggruppa 3360" transform="translate(-1.256 -4.256)" clip-path="url(#clip-path)">
        <path id="Tracciato_1741" data-name="Tracciato 1741" d="M152.321,13.542a1.175,1.175,0,0,1-.141-.008h-4.513a1.163,1.163,0,0,1,0-2.327h3.49V7.725a1.163,1.163,0,1,1,2.327,0v4.654A1.163,1.163,0,0,1,152.321,13.542Z" transform="translate(-127.557 -6.125)" fill="#333"/>
        <path id="Tracciato_1742" data-name="Tracciato 1742" d="M13.962,27.924a14.028,14.028,0,0,1-11.234-5.67A13.963,13.963,0,0,1,13.962,0a13.871,13.871,0,0,1,9.873,4.089L25.58,5.835A1.163,1.163,0,0,1,23.934,7.48L22.189,5.735A11.635,11.635,0,0,0,4.6,20.871a11.636,11.636,0,0,0,21-6.909,1.163,1.163,0,1,1,2.327,0A13.978,13.978,0,0,1,13.962,27.924Z" transform="translate(0.007 -0.412)" fill="#333"/>
      </g>
    </g>
  </g>
</svg>
